<svg width="27" height="22" viewBox="0 0 27 22" fill="none" xmlns="http://www.w3.org/2000/svg">
<path d="M20.0933 0C20.61 0.0816234 21.1319 0.133175 21.6381 0.253462C23.6731 0.747499 25.1863 1.77424 26.1722 3.3079C26.7627 4.22723 27.0052 5.21101 26.9999 6.24634C26.9946 9.43824 26.9999 12.6301 26.9999 15.8221C26.9999 17.2182 26.5201 18.4941 25.4657 19.5982C23.9526 21.1748 21.9491 21.9739 19.4975 21.9911C17.3465 22.0082 15.1954 21.9954 13.039 21.9954C11.2465 21.9954 9.45393 21.9954 7.66137 21.9954C5.00944 21.9911 2.88473 21.1319 1.33469 19.3705C0.422594 18.3352 0.00608785 17.1581 0.00608785 15.8865C0.000815617 12.613 -0.00445661 9.34373 0.00608785 6.0702C0.0166323 3.411 2.08862 1.10406 5.19396 0.296422C5.74755 0.154655 6.33804 0.0988073 6.91271 0C11.3045 0 15.7015 0 20.0933 0ZM13.503 20.0407C13.503 20.045 13.503 20.045 13.503 20.0407C15.3641 20.045 17.2252 20.045 19.0916 20.045C19.7875 20.045 20.4782 20.0192 21.1425 19.8302C23.2724 19.2288 24.5905 17.7166 24.6011 15.8306C24.6116 12.6173 24.6063 9.40388 24.6063 6.19049C24.6063 5.41722 24.4165 4.67831 23.9209 4.01673C22.8876 2.62484 21.3481 1.95467 19.3657 1.95037C15.4485 1.94607 11.5312 1.95037 7.61392 1.95037C6.83363 1.95037 6.06915 2.04488 5.36268 2.32842C3.41195 3.11458 2.4155 4.40766 2.40495 6.17331C2.38386 9.39528 2.39968 12.6173 2.40495 15.8349C2.40495 16.6082 2.60003 17.3428 3.10616 18.0044C4.12897 19.3533 5.63156 20.0321 7.57701 20.0407C9.54883 20.0493 11.5259 20.0407 13.503 20.0407Z" fill="white"/>
<path d="M20.463 11.0113C20.4261 14.1602 17.2733 16.6991 13.4562 16.6647C9.63376 16.6304 6.52312 14.0657 6.54948 10.9683C6.57584 7.85372 9.72866 5.29761 13.5194 5.32769C17.4051 5.35776 20.4419 7.89238 20.463 11.0113ZM13.4773 14.7101C16.0027 14.723 18.0589 13.0604 18.0589 11.0027C18.0641 8.95778 16.0343 7.30383 13.5036 7.29094C11.0204 7.27806 8.96946 8.9363 8.94837 10.9812C8.92728 13.0175 10.9624 14.6972 13.4773 14.7101Z" fill="white"/>
<path d="M20.7266 3.68214C21.6809 3.66066 22.477 4.29226 22.5087 5.10002C22.535 5.85192 21.7389 6.51789 20.8004 6.53508C19.825 6.55226 19.0184 5.92926 18.992 5.13869C18.9709 4.35671 19.7459 3.70363 20.7266 3.68214Z" fill="white"/>
</svg>
